<?xml version="1.0" encoding="UTF-8"?>
<svg xmlns="http://www.w3.org/2000/svg" xmlns:xlink="http://www.w3.org/1999/xlink" width="64px" height="64px" viewBox="0 0 64 52" version="1.1">
<g id="surface1">
<path style=" stroke:none;fill-rule:nonzero;fill:rgb(0%,0%,0%);fill-opacity:1;" d="M 6.699219 39.636719 L 6.863281 11.464844 L 3.648438 11.464844 L 3.648438 47.3125 C 8.0625 46.183594 12.496094 45.464844 16.960938 45.433594 C 21.082031 45.410156 25.203125 45.976562 29.335938 47.363281 C 26.769531 45.304688 23.90625 43.792969 20.855469 42.808594 C 17.007812 41.566406 12.847656 41.15625 8.585938 41.515625 C 7.625 41.589844 6.785156 40.882812 6.699219 39.933594 C 6.691406 39.832031 6.691406 39.734375 6.699219 39.636719 Z M 53.867188 9.992188 C 53.855469 9.910156 53.847656 9.824219 53.847656 9.730469 C 53.847656 9.644531 53.851562 9.558594 53.867188 9.46875 L 53.867188 3.765625 C 49.824219 3.386719 45.65625 3.828125 42.015625 5.191406 C 38.613281 6.46875 35.679688 8.566406 33.773438 11.574219 L 33.773438 44.0625 C 36.738281 42.105469 39.769531 40.492188 42.886719 39.394531 C 46.4375 38.144531 50.085938 37.550781 53.867188 37.847656 Z M 57.367188 8.003906 L 62.105469 8.003906 C 63.070312 8.003906 63.851562 8.777344 63.851562 9.730469 L 63.851562 49.570312 C 63.851562 50.523438 63.070312 51.296875 62.105469 51.296875 C 61.90625 51.296875 61.714844 51.265625 61.539062 51.203125 C 56.667969 49.824219 51.824219 48.90625 47.027344 48.875 C 42.351562 48.84375 37.683594 49.660156 32.988281 51.707031 C 32.699219 51.898438 32.351562 52 31.996094 51.996094 C 31.640625 52 31.296875 51.898438 31 51.707031 C 26.3125 49.65625 21.636719 48.84375 16.960938 48.875 C 12.164062 48.90625 7.328125 49.824219 2.449219 51.203125 C 2.273438 51.265625 2.082031 51.296875 1.882812 51.296875 C 0.929688 51.300781 0.148438 50.527344 0.148438 49.574219 L 0.148438 9.730469 C 0.148438 8.777344 0.929688 8.003906 1.894531 8.003906 L 6.878906 8.003906 L 6.90625 2.226562 C 6.914062 1.394531 7.503906 0.707031 8.296875 0.542969 C 12.894531 -0.40625 18.484375 -0.167969 23.382812 1.6875 C 26.769531 2.96875 29.84375 5.015625 32.089844 7.972656 C 34.355469 5.21875 37.382812 3.238281 40.789062 1.960938 C 45.441406 0.210938 50.8125 -0.210938 55.867188 0.523438 C 56.738281 0.644531 57.363281 1.390625 57.363281 2.230469 L 57.363281 8.003906 Z M 35.46875 47.101562 C 39.332031 45.902344 43.1875 45.410156 47.042969 45.429688 C 51.507812 45.453125 55.941406 46.179688 60.359375 47.304688 L 60.359375 11.464844 L 57.367188 11.464844 L 57.367188 39.792969 C 57.367188 40.746094 56.582031 41.519531 55.621094 41.519531 C 55.480469 41.519531 55.34375 41.503906 55.214844 41.472656 C 51.390625 40.878906 47.683594 41.371094 44.0625 42.648438 C 41.148438 43.679688 38.289062 45.21875 35.46875 47.101562 Z M 30.277344 43.730469 L 30.277344 11.519531 C 28.449219 8.324219 25.488281 6.1875 22.144531 4.917969 C 18.355469 3.484375 14.097656 3.160156 10.386719 3.683594 L 10.191406 37.953125 C 14.238281 37.8125 18.199219 38.320312 21.925781 39.523438 C 24.890625 40.480469 27.703125 41.878906 30.277344 43.730469 Z M 30.277344 43.730469 "/>
</g>
</svg>
